<svg xmlns="http://www.w3.org/2000/svg" xmlns:xlink="http://www.w3.org/1999/xlink" width="96" height="96" viewBox="0 0 96 96">
  <defs>
    <path id="app-icon-a" d="M96,68.5984769 C96,78.1265835 95.0079263,81.5817051 93.1450192,85.0650385 C91.2821122,88.5483718 88.5483718,91.2821122 85.0650385,93.1450192 L85.0650385,93.1450192 L84.6916542,93.3412786 C81.3271646,95.0775233 77.7862939,96 68.5984769,96 L68.5984769,96 L27.4015231,96 L26.8968637,95.9990516 C17.7500103,95.9642911 14.3560925,94.9746601 10.9349615,93.1450192 C7.45162821,91.2821122 4.71788782,88.5483718 2.85498077,85.0650385 L2.85498077,85.0650385 L2.65872138,84.6916542 C0.95462939,81.3894699 0.034444874,77.9173768 0.000948359742,69.1031363 L0.000948359742,69.1031363 L0.000948359742,26.8968637 C0.0357088935,17.7500103 1.02533992,14.3560925 2.85498077,10.9349615 C4.71788782,7.45162821 7.45162821,4.71788782 10.9349615,2.85498077 L10.9349615,2.85498077 L11.3083458,2.65872138 C14.6105301,0.95462939 18.0826232,0.034444874 26.8968637,0.000948359742 L26.8968637,0.000948359742 L69.1031363,0.000948359742 C78.2499897,0.0357088935 81.6439075,1.02533992 85.0650385,2.85498077 C88.5483718,4.71788782 91.2821122,7.45162821 93.1450192,10.9349615 L93.1450192,10.9349615 L93.3412786,11.3083458 C95.0775233,14.6728354 96,18.2137061 96,27.4015231 L96,27.4015231 Z"/>
    <linearGradient id="app-icon-d" x1="50%" x2="50%" y1="57.587%" y2="100%">
      <stop offset="0%" stop-opacity=".149"/>
      <stop offset="100%" stop-opacity=".33"/>
    </linearGradient>
    <rect id="app-icon-c" width="96" height="96" x="0" y="0"/>
    <circle id="app-icon-g" cx="42.75" cy="5.25" r="1"/>
    <filter id="app-icon-f" width="100%" height="100%" x="0%" y="0%" filterUnits="objectBoundingBox">
      <feOffset in="SourceAlpha" result="shadowOffsetOuter1"/>
      <feColorMatrix in="shadowOffsetOuter1" values="0 0 0 0 0   0 0 0 0 0   0 0 0 0 0  0 0 0 0.5 0"/>
    </filter>
    <circle id="app-icon-i" cx="3.75" cy="5.25" r="1"/>
    <filter id="app-icon-h" width="100%" height="100%" x="0%" y="0%" filterUnits="objectBoundingBox">
      <feOffset in="SourceAlpha" result="shadowOffsetOuter1"/>
      <feColorMatrix in="shadowOffsetOuter1" values="0 0 0 0 0   0 0 0 0 0   0 0 0 0 0  0 0 0 0.5 0"/>
    </filter>
    <linearGradient id="app-icon-k" x1="34.25%" x2="73.799%" y1="34.365%" y2="74.029%">
      <stop offset="0%" stop-color="#FFF" stop-opacity=".15"/>
      <stop offset="100%" stop-color="#FFF" stop-opacity="0"/>
    </linearGradient>
    <path id="app-icon-j" d="M23.0921116,89.1771314 L90.9742379,21.2950052 L125.0204,55.3769878 L99.159505,95.9471855 C98.7920226,96.5236866 98.302883,97.0128261 97.7263819,97.3803085 L57.1561843,123.241204 L57.1561843,123.241204 L23.0921116,89.1771314 Z"/>
    <ellipse id="app-icon-m" cx="10.406" cy="10.594" rx="10.406" ry="10.594"/>
    <filter id="app-icon-l" width="109.6%" height="118.9%" x="-4.8%" y="-4.7%" filterUnits="objectBoundingBox">
      <feOffset dy="2" in="SourceAlpha" result="shadowOffsetOuter1"/>
      <feColorMatrix in="shadowOffsetOuter1" result="shadowMatrixOuter1" values="0 0 0 0 0   0 0 0 0 0   0 0 0 0 0  0 0 0 0.25 0"/>
      <feOffset dy="1" in="SourceAlpha" result="shadowOffsetOuter2"/>
      <feColorMatrix in="shadowOffsetOuter2" result="shadowMatrixOuter2" values="0 0 0 0 0.760602679   0 0 0 0 0.620787795   0 0 0 0 0.138426446  0 0 0 1 0"/>
      <feMerge>
        <feMergeNode in="shadowMatrixOuter1"/>
        <feMergeNode in="shadowMatrixOuter2"/>
      </feMerge>
    </filter>
  </defs>
  <g fill="none" fill-rule="evenodd">
    <mask id="app-icon-b" fill="#fff">
      <use xlink:href="#app-icon-a"/>
    </mask>
    <use fill="#000" xlink:href="#app-icon-a"/>
    <g mask="url(#app-icon-b)">
      <mask id="app-icon-e" fill="#fff">
        <use xlink:href="#app-icon-c"/>
      </mask>
      <use fill="#B56C04" xlink:href="#app-icon-c"/>
      <use fill="url(#app-icon-d)" xlink:href="#app-icon-c" style="mix-blend-mode:multiply"/>
      <g mask="url(#app-icon-e)">
        <g transform="translate(24.563 41.625)">
          <g transform="translate(13.81)">
            <path fill="#000" d="M2.87840909,2.0625 L16.9147727,2.0625 C18.4673713,2.06429895 19.7262794,3.3224023 19.7290711,4.87499943 L19.7523768,41.3230803 C19.7530161,42.3228585 19.2228581,43.2478223 18.3598617,43.7525938 L11.2495135,47.9114767 C10.3651209,48.4287629 9.26939545,48.4241938 8.38934764,47.8995499 L1.43822757,43.7556129 C0.587210882,43.2482761 0.0659090909,42.330592 0.0659090909,41.3398246 L0.0659090909,4.875 C0.0659090909,3.32169914 1.32510823,2.0625 2.87840909,2.0625 Z" opacity=".25"/>
            <path fill="#C99D05" d="M2.87840909,0.9375 L16.9147727,0.9375 C18.4673713,0.939298949 19.7262794,2.1974023 19.7290711,3.74999943 L19.7523768,40.1980803 C19.7530161,41.1978585 19.2228581,42.1228223 18.3598617,42.6275938 L11.2495135,46.7864767 C10.3651209,47.3037629 9.26939545,47.2991938 8.38934764,46.7745499 L1.43822757,42.6306129 C0.587210882,42.1232761 0.0659090909,41.205592 0.0659090909,40.2148246 L0.0659090909,3.75 C0.0659090909,2.19669914 1.32510823,0.9375 2.87840909,0.9375 Z"/>
            <path fill="#FFD543" d="M2.87840909,0 L16.9147727,0 C18.4673713,0.0017989486 19.7262794,1.2599023 19.7290711,2.81249943 L19.7523768,39.2605803 C19.7530161,40.2603585 19.2228581,41.1853223 18.3598617,41.6900938 L11.2495135,45.8489767 C10.3651209,46.3662629 9.26939545,46.3616938 8.38934764,45.8370499 L1.43822757,41.6931129 C0.587210882,41.1857761 0.0659090909,40.268092 0.0659090909,39.2773246 L0.0659090909,2.8125 C0.0659090909,1.25919914 1.32510823,-1.58752471e-16 2.87840909,0 Z"/>
          </g>
          <g transform="translate(0 23.477)">
            <path fill="#000" d="M1.40625,2.21070359 L13.875,2.21070359 L13.875,2.21070359 L13.875,1.3125 L33.5625,1.3125 L33.5625,2.21070359 L45.09375,2.21070359 C45.8704004,2.21070359 46.5,2.84030316 46.5,3.61695359 L46.5,9.24195359 C46.5,10.018604 45.8704004,10.6482036 45.09375,10.6482036 L33.5625,10.6482036 L33.5625,10.6482036 L33.5625,9.71070359 L13.875,9.71070359 L13.875,10.6482036 L1.40625,10.6482036 C0.629599571,10.6482036 9.51122462e-17,10.018604 0,9.24195359 L0,3.61695359 C1.26932359e-16,2.84030316 0.629599571,2.21070359 1.40625,2.21070359 Z" opacity=".4"/>
            <path fill="#764807" d="M1.40625,0.898203593 L13.875,0.898203593 L13.875,0.898203593 L13.875,0 L33.5625,0 L33.5625,0.898203593 L45.09375,0.898203593 C45.8704004,0.898203593 46.5,1.52780316 46.5,2.30445359 L46.5,7.92945359 C46.5,8.70610402 45.8704004,9.33570359 45.09375,9.33570359 L33.5625,9.33570359 L33.5625,9.33570359 L33.5625,8.39820359 L13.875,8.39820359 L13.875,9.33570359 L1.40260865,9.30340739 C0.627382473,9.3014 6.3884583e-16,8.67239087 0,7.8971621 L0,2.30445359 C-9.51122462e-17,1.52780316 0.629599571,0.898203593 1.40625,0.898203593 Z"/>
            <use fill="#000" filter="url(#app-icon-f)" xlink:href="#app-icon-g"/>
            <use fill="#FFD543" xlink:href="#app-icon-g"/>
            <use fill="#000" filter="url(#app-icon-h)" xlink:href="#app-icon-i"/>
            <use fill="#FFD543" xlink:href="#app-icon-i"/>
            <polygon fill="#000" points="13.125 .898 13.875 .898 13.875 10.648 13.125 10.648" opacity=".33"/>
            <rect width="1" height="9.75" x="33.563" y=".898" fill="#000" opacity=".33"/>
          </g>
        </g>
      </g>
      <g mask="url(#app-icon-e)">
        <g transform="translate(-26.063 -48.188)">
          <path fill="#000" d="M21.7232101,89.7585094 L89.6561011,21.8256185 L126.352179,58.4594572 L99.0624302,97.9428479 C98.7406235,98.4084446 98.3371559,98.8119122 97.8715592,99.1337189 L58.3881685,126.423468 L58.3881685,126.423468 L21.7232101,89.7585094 Z" opacity=".25" transform="rotate(45 74.038 74.125)"/>
          <path fill="#AC6500" d="M22.7605638,89.3143872 L90.6424311,21.4325199 L125.351765,56.1771562 L99.4908697,96.7473539 C99.1233873,97.3238549 98.6342478,97.8129945 98.0577467,98.1804769 L57.487549,124.041372 L57.487549,124.041372 L22.7605638,89.3143872 Z" transform="rotate(45 74.056 72.737)"/>
          <g transform="rotate(45 74.056 72.268)">
            <use fill="#D57E03" xlink:href="#app-icon-j"/>
            <use fill="url(#app-icon-k)" xlink:href="#app-icon-j" style="mix-blend-mode:screen"/>
          </g>
          <g transform="translate(63.75 80.625)">
            <use fill="#000" filter="url(#app-icon-l)" xlink:href="#app-icon-m"/>
            <use fill="#D6820B" xlink:href="#app-icon-m"/>
            <path fill="#FFD543" d="M10.40625,0 C16.1534632,0 20.8125,4.74298343 20.8125,10.59375 C20.8125,16.4445166 16.1534632,21.1875 10.40625,21.1875 C4.65903682,21.1875 0,16.4445166 0,10.59375 C0,4.74298343 4.65903682,0 10.40625,0 Z M10.5881849,2.25 C9.4375,2.25 8.3627333,2.46606927 7.36386986,2.89821429 C6.36500642,3.3303593 5.50200135,3.91963913 4.77482877,4.66607143 C4.04765618,5.41250373 3.47631486,6.2885664 3.06078767,7.29428571 C2.64526048,8.30000503 2.4375,9.36856577 2.4375,10.5 C2.4375,11.662863 2.65724666,12.7471378 3.09674658,13.7528571 C3.53624649,14.7585765 4.13555557,15.6307106 4.89469178,16.3692857 C5.653828,17.1078608 6.54480082,17.6892836 7.56763699,18.1135714 C8.59047315,18.5378593 9.67722027,18.75 10.827911,18.75 C11.6110199,18.75 12.3701447,18.6478582 13.1053082,18.4435714 C13.8404717,18.2392847 14.5236841,17.9485733 15.1549658,17.5714286 C15.7862474,17.1942838 16.3575888,16.7425026 16.8690068,16.2160714 C17.3804249,15.6896402 17.8199183,15.1042889 18.1875,14.46 L18.1875,14.46 L18.1875,9.22714286 L12.0265411,9.22714286 L12.0265411,12.5271429 L13.4648973,12.5271429 C13.145261,12.920002 12.7617032,13.230356 12.3142123,13.4582143 C11.8667215,13.6860726 11.3712927,13.8 10.827911,13.8 C10.3644383,13.8 9.92894039,13.7175008 9.52140411,13.5525 C9.11386783,13.3874992 8.75827777,13.1596443 8.45462329,12.8689286 C8.1509688,12.5782128 7.91124517,12.2285735 7.73544521,11.82 C7.55964524,11.4114265 7.47174658,10.9714309 7.47174658,10.5 C7.47174658,10.0285691 7.55165445,9.58857347 7.7114726,9.18 C7.87129075,8.77142653 8.09103741,8.42178717 8.37071918,8.13107143 C8.65040094,7.84035569 8.98201863,7.61250082 9.36558219,7.4475 C9.74914575,7.28249917 10.1726575,7.2 10.6361301,7.2 C11.0516573,7.2 11.4751691,7.26678505 11.9066781,7.40035714 C12.3381871,7.53392924 12.6977725,7.72642731 12.9854452,7.97785714 L12.9854452,7.97785714 L15.8861301,3.92357143 C15.5345302,3.62499851 15.0950369,3.35000126 14.567637,3.09857143 C14.1201462,2.87857033 13.5687818,2.68214372 12.9135274,2.50928571 C12.258273,2.33642771 11.4831666,2.25 10.5881849,2.25 Z M10.5969181,4.125 C10.9757832,4.125 11.3236675,4.14983346 11.6408072,4.19987706 C11.9525834,4.24907432 12.2253602,4.30690014 12.4491983,4.37100358 C12.7205694,4.43880424 12.9683923,4.52420737 13.1925752,4.62761213 L13.5480961,4.79159683 L12.8060542,5.85761979 L12.5730341,5.77999465 C12.3886287,5.71856435 12.1883122,5.65696677 11.982702,5.59806805 C11.8004318,5.5525288 11.586097,5.50662842 11.3400287,5.46051926 C11.1083919,5.41711432 10.8607353,5.39527583 10.5969181,5.39527583 C9.88172032,5.39527583 9.22213838,5.51748197 8.61591496,5.76129847 C8.01064733,6.00473057 7.48466336,6.35026762 7.03554215,6.79911001 C6.58611369,7.24825947 6.23196825,7.78652129 5.97246026,8.41636373 C5.71349516,9.04488855 5.58356492,9.7386563 5.58356492,10.5 C5.58356492,11.260225 5.71699891,11.9529102 5.98301075,12.5806038 C6.24969334,13.2098801 6.61474145,13.7478997 7.07903955,14.1971791 C7.54441743,14.6475033 8.08312805,14.9941291 8.69736525,15.2381922 C9.3119504,15.4823937 9.97591283,15.6047242 10.6914601,15.6047242 C11.5828244,15.6047242 12.3914068,15.4054714 13.1223546,15.0070202 C13.8268172,14.6230064 14.4029648,14.1110963 14.8539351,13.4688162 L14.8539351,11.5366921 L12.9630947,11.5366921 L12.9630947,10.3136579 L16.125,10.3136579 L16.125,13.8330737 L16.0721986,13.9144881 C15.4925617,14.8082298 14.7376732,15.5253432 13.8106735,16.0630002 C12.8773575,16.6043205 11.8356358,16.875 10.6914601,16.875 C9.8143268,16.875 8.98823816,16.7173524 8.21556048,16.4018306 C7.44504509,16.0871918 6.76800657,15.6513334 6.18644856,15.0950449 C5.60237909,14.536354 5.14374254,13.8654936 4.811421,13.0850229 C4.47846957,12.3030727 4.3125,11.4405668 4.3125,10.5 C4.3125,9.56044067 4.47413686,8.69891262 4.79845343,7.91771179 C5.12225809,7.13774404 5.56824925,6.46708983 6.13576591,5.90826614 C6.70204153,5.35066448 7.36807907,4.91384869 8.13168236,4.59864314 C8.89691273,4.28276594 9.71946698,4.125 10.5969181,4.125 Z"/>
          </g>
        </g>
      </g>
    </g>
  </g>
</svg>
