<svg xmlns="http://www.w3.org/2000/svg" xmlns:xlink="http://www.w3.org/1999/xlink" width="85" height="96" viewBox="0 0 85 96">
  <defs>
    <ellipse id="rounded-app-icon-b" cx="42.5" cy="43.392" rx="42.5" ry="43.392"/>
    <filter id="rounded-app-icon-a" width="110.6%" height="120.7%" x="-5.3%" y="-5.2%" filterUnits="objectBoundingBox">
      <feOffset dy="9" in="SourceAlpha" result="shadowOffsetOuter1"/>
      <feColorMatrix in="shadowOffsetOuter1" result="shadowMatrixOuter1" values="0 0 0 0 0   0 0 0 0 0   0 0 0 0 0  0 0 0 0.25 0"/>
      <feOffset dy="3" in="SourceAlpha" result="shadowOffsetOuter2"/>
      <feColorMatrix in="shadowOffsetOuter2" result="shadowMatrixOuter2" values="0 0 0 0 0.760602679   0 0 0 0 0.620787795   0 0 0 0 0.138426446  0 0 0 1 0"/>
      <feMerge>
        <feMergeNode in="shadowMatrixOuter1"/>
        <feMergeNode in="shadowMatrixOuter2"/>
      </feMerge>
    </filter>
  </defs>
  <g fill="none" fill-rule="evenodd">
    <use fill="#000" filter="url(#rounded-app-icon-a)" xlink:href="#rounded-app-icon-b"/>
    <use fill="#D6820B" xlink:href="#rounded-app-icon-b"/>
    <path fill="#FFD543" d="M42.5,0 C65.9721019,0 85,19.4272601 85,43.392 C85,67.3567399 65.9721019,86.784 42.5,86.784 C19.0278981,86.784 0,67.3567399 0,43.392 C0,19.4272601 19.0278981,0 42.5,0 Z M43.2430376,9.216 C38.54352,9.216 34.154106,10.1010197 30.0746637,11.8710857 C25.9952214,13.6411517 22.4706362,16.0548419 19.5008022,19.1122286 C16.5309682,22.1696153 14.1975622,25.757968 12.5005142,29.8773943 C10.8034662,33.9968206 9.95495495,38.3736454 9.95495495,43.008 C9.95495495,47.7710867 10.8524188,52.2122765 12.6473734,56.3317029 C14.442328,60.4511292 16.8899567,64.0233906 19.9903328,67.0485943 C23.0907089,70.073798 26.7295169,72.4553056 30.9068658,74.1931886 C35.0842147,75.9310715 39.5225813,76.8 44.2220988,76.8 C47.4203816,76.8 50.5207112,76.381627 53.5231807,75.5448686 C56.5256502,74.7081101 59.3159469,73.5173563 61.8941544,71.9725714 C64.472362,70.4277866 66.8057679,68.5772908 68.8944424,66.4210286 C70.9831168,64.2647664 72.7780445,61.8671675 74.2792793,59.22816 L74.2792793,59.22816 L74.2792793,37.7943771 L49.1174051,37.7943771 L49.1174051,51.3111771 L54.9917726,51.3111771 C53.6863511,52.920328 52.1198687,54.1915382 50.2922786,55.1248457 C48.4646884,56.0581532 46.4413154,56.5248 44.2220988,56.5248 C42.3292376,56.5248 40.5506274,56.1868834 38.886215,55.51104 C37.2218025,54.8351966 35.7695429,53.9019031 34.5293924,52.7111314 C33.289242,51.5203598 32.3101905,50.0882369 31.5922086,48.41472 C30.8742268,46.7412031 30.5152413,44.9389811 30.5152413,43.008 C30.5152413,41.0770189 30.8415918,39.2747969 31.4943025,37.60128 C32.1470133,35.9277631 33.0444771,34.4956402 34.186721,33.3048686 C35.3289648,32.1140969 36.6833193,31.1808034 38.2498252,30.50496 C39.816331,29.8291166 41.5459886,29.4912 43.4388498,29.4912 C45.1358978,29.4912 46.8655554,29.7647516 48.6278744,30.3118629 C50.3901935,30.8589742 51.8587707,31.6474463 53.0336501,32.6773029 L53.0336501,32.6773029 L64.8802913,16.0709486 C63.4443276,14.8479939 61.6493999,13.7216051 59.4954544,12.6917486 C57.6678642,11.7906241 55.4160459,10.9860607 52.7399317,10.2780343 C50.0638176,9.57000789 46.8982178,9.216 43.2430376,9.216 Z M43.2787044,16.896 C44.8260213,16.896 46.2468103,16.9977178 47.5420356,17.2026965 C48.8153556,17.4042084 49.929399,17.641063 50.8435727,17.9036307 C51.9518751,18.1813422 52.9640047,18.5311534 53.8795863,18.9546993 L55.3315635,19.6263806 L52.3010022,23.9928107 L51.3493285,23.6748581 C50.5962015,23.4232396 49.778092,23.1709359 48.9383624,22.9296868 C48.1939557,22.743158 47.3185942,22.55515 46.3136306,22.3662869 C45.3676064,22.1885002 44.3561562,22.0990498 43.2787044,22.0990498 C40.3577767,22.0990498 37.6639886,22.5996061 35.1881212,23.5982785 C32.7161572,24.5953764 30.5679945,26.0106962 28.7337457,27.8491546 C26.8982421,29.6888708 25.4518824,31.8935912 24.3920299,34.4734258 C23.3343946,37.0478635 22.8037486,39.8895362 22.8037486,43.008 C22.8037486,46.1218817 23.3487042,48.95912 24.435119,51.530153 C25.5242731,54.1076689 27.0151603,56.311397 28.9113928,58.1516454 C30.8120351,59.9961735 33.0121746,61.4159526 35.520771,62.4156354 C38.0307884,63.4158845 40.7424668,63.9169502 43.664822,63.9169502 C47.3052287,63.9169502 50.6075475,63.100811 53.5927997,61.4687546 C56.4698841,59.8958342 58.8229192,57.7990506 60.6647199,55.1682712 L60.6647199,47.2542907 L52.9423688,47.2542907 L52.9423688,42.2447427 L65.8558559,42.2447427 L65.8558559,56.6602699 L65.6402105,56.9937434 C63.2729248,60.6545094 60.1898967,63.5918058 56.4039518,65.7940486 C52.5922108,68.0112967 48.3377317,69.12 43.664822,69.12 C40.0825359,69.12 36.7087204,68.4742753 33.5530398,67.1818981 C30.4061901,65.8931376 27.6411079,64.1078618 25.2659761,61.829304 C22.8805873,59.5409062 21.007477,56.7930619 19.6502479,53.5962536 C18.2904463,50.3933859 17.6126126,46.8605615 17.6126126,43.008 C17.6126126,39.159565 18.2727511,35.6307461 19.5972873,32.4309475 C20.9197327,29.2361996 22.7411982,26.4891999 25.0589839,24.2002581 C27.3717011,21.9163217 30.0918544,20.1271243 33.2104745,18.8360423 C36.3357397,17.5422093 39.6951204,16.896 43.2787044,16.896 Z"/>
  </g>
</svg>
