<svg xmlns="http://www.w3.org/2000/svg" width="32" height="32" viewBox="0 0 32 32">
  <path fill="#BBB" d="M12.5625,31.125 C14.8541667,31.625 17.1458333,31.625 19.4375,31.125 C19.6041667,31.0833333 19.7395833,30.9895833 19.84375,30.84375 C19.9479167,30.6979167 20,30.5416667 20,30.375 L20,30.375 L20,27.3125 C21.4166667,26.8125 22.6875,26.0833333 23.8125,25.125 L23.8125,25.125 L26.4375,26.6875 C26.6041667,26.7708333 26.7708333,26.7916667 26.9375,26.75 C27.1041667,26.7083333 27.25,26.625 27.375,26.5 C28.9583333,24.7916667 30.1041667,22.8333333 30.8125,20.625 C30.8541667,20.4583333 30.84375,20.2916667 30.78125,20.125 C30.71875,19.9583333 30.6041667,19.8333333 30.4375,19.75 L30.4375,19.75 L27.8125,18.1875 C28.0625,16.7291667 28.0625,15.2708333 27.8125,13.8125 L27.8125,13.8125 L30.4375,12.25 C30.6041667,12.1666667 30.71875,12.0416667 30.78125,11.875 C30.84375,11.7083333 30.8541667,11.5416667 30.8125,11.375 C30.1041667,9.16666667 28.9583333,7.20833333 27.375,5.5 C27.25,5.375 27.1041667,5.29166667 26.9375,5.25 C26.7708333,5.20833333 26.6041667,5.22916667 26.4375,5.3125 L26.4375,5.3125 L23.8125,6.875 C22.6875,5.91666667 21.4166667,5.1875 20,4.6875 L20,4.6875 L20,1.625 C20,1.45833333 19.9479167,1.30208333 19.84375,1.15625 C19.7395833,1.01041667 19.6041667,0.916666667 19.4375,0.875 C17.1458333,0.375 14.8541667,0.375 12.5625,0.875 C12.3958333,0.916666667 12.2604167,1.01041667 12.15625,1.15625 C12.0520833,1.30208333 12,1.45833333 12,1.625 L12,1.625 L12,4.6875 C10.5833333,5.1875 9.3125,5.91666667 8.1875,6.875 L8.1875,6.875 L5.5625,5.3125 C5.39583333,5.22916667 5.22916667,5.20833333 5.0625,5.25 C4.89583333,5.29166667 4.75,5.375 4.625,5.5 C3.04166667,7.20833333 1.89583333,9.16666667 1.1875,11.375 C1.14583333,11.5416667 1.15625,11.7083333 1.21875,11.875 C1.28125,12.0416667 1.39583333,12.1666667 1.5625,12.25 L1.5625,12.25 L4.1875,13.8125 C3.9375,15.2708333 3.9375,16.7291667 4.1875,18.1875 L4.1875,18.1875 L1.5625,19.75 C1.39583333,19.8333333 1.28125,19.9583333 1.21875,20.125 C1.15625,20.2916667 1.14583333,20.4583333 1.1875,20.625 C1.89583333,22.8333333 3.04166667,24.7916667 4.625,26.5 C4.75,26.625 4.89583333,26.7083333 5.0625,26.75 C5.22916667,26.7916667 5.39583333,26.7708333 5.5625,26.6875 L5.5625,26.6875 L8.1875,25.125 C9.3125,26.0833333 10.5833333,26.8125 12,27.3125 L12,27.3125 L12,30.375 C12,30.5416667 12.0520833,30.6979167 12.15625,30.84375 C12.2604167,30.9895833 12.3958333,31.0833333 12.5625,31.125 Z M16,21 C14.625,21 13.4479167,20.5104167 12.46875,19.53125 C11.4895833,18.5520833 11,17.375 11,16 C11,14.625 11.4895833,13.4479167 12.46875,12.46875 C13.4479167,11.4895833 14.625,11 16,11 C17.375,11 18.5520833,11.4895833 19.53125,12.46875 C20.5104167,13.4479167 21,14.625 21,16 C21,17.375 20.5104167,18.5520833 19.53125,19.53125 C18.5520833,20.5104167 17.375,21 16,21 Z"/>
</svg>
