<svg xmlns="http://www.w3.org/2000/svg" width="32" height="32" viewBox="0 0 32 32">
  <path fill="#C3C3C3" d="M28.75,32 C29.1666667,32 29.5208333,31.8541667 29.8125,31.5625 L31.5625,29.8125 C31.8541667,29.5208333 32,29.1666667 32,28.75 C32,28.3333333 31.8541667,27.9791667 31.5625,27.6875 L25.3125,21.4375 C25.0208333,21.1458333 24.6666667,21 24.25,21 L23.25,21 C25.0833333,18.6666667 26,16 26,13 C26,10.625 25.4166667,8.44791667 24.25,6.46875 C23.0833333,4.48958333 21.5104167,2.91666667 19.53125,1.75 C17.5520833,0.583333333 15.375,0 13,0 C10.625,0 8.44791667,0.583333333 6.46875,1.75 C4.48958333,2.91666667 2.91666667,4.48958333 1.75,6.46875 C0.583333333,8.44791667 0,10.625 0,13 C0,15.375 0.583333333,17.5520833 1.75,19.53125 C2.91666667,21.5104167 4.48958333,23.0833333 6.46875,24.25 C8.44791667,25.4166667 10.625,26 13,26 C16,26 18.6666667,25.0833333 21,23.25 L21,24.25 C21,24.6666667 21.1458333,25.0208333 21.4375,25.3125 L27.6875,31.5625 C27.9791667,31.8541667 28.3333333,32 28.75,32 Z M13,21 C11.5416667,21 10.1979167,20.6458333 8.96875,19.9375 C7.73958333,19.2291667 6.77083333,18.2604167 6.0625,17.03125 C5.35416667,15.8020833 5,14.4583333 5,13 C5,11.5416667 5.35416667,10.1979167 6.0625,8.96875 C6.77083333,7.73958333 7.73958333,6.77083333 8.96875,6.0625 C10.1979167,5.35416667 11.5416667,5 13,5 C14.4583333,5 15.8020833,5.35416667 17.03125,6.0625 C18.2604167,6.77083333 19.2291667,7.73958333 19.9375,8.96875 C20.6458333,10.1979167 21,11.5416667 21,13 C21,14.4583333 20.6458333,15.8020833 19.9375,17.03125 C19.2291667,18.2604167 18.2604167,19.2291667 17.03125,19.9375 C15.8020833,20.6458333 14.4583333,21 13,21 Z"/>
</svg>
