<svg xmlns="http://www.w3.org/2000/svg" width="18" height="15" viewBox="0 0 18 15">
  <path fill="#DDD" d="M7.109375,20.75 C7.47395833,20.75 7.78385417,20.6223958 8.0390625,20.3671875 L8.0390625,20.3671875 L13.6171875,14.7890625 C13.8723958,14.5338542 14,14.2239583 14,13.859375 C14,13.4947917 13.8723958,13.1848958 13.6171875,12.9296875 L13.6171875,12.9296875 L7.8203125,7.1328125 C7.56510417,6.87760417 7.25520833,6.75 6.890625,6.75 L6.890625,6.75 L1.3125,6.75 C0.947916667,6.75 0.638020833,6.87760417 0.3828125,7.1328125 C0.127604167,7.38802083 0,7.69791667 0,8.0625 L0,8.0625 L0,13.640625 C0,14.0052083 0.127604167,14.3151042 0.3828125,14.5703125 L0.3828125,14.5703125 L6.1796875,20.3671875 C6.43489583,20.6223958 6.74479167,20.75 7.109375,20.75 Z M10.609375,20.75 C10.9739583,20.75 11.2838542,20.6223958 11.5390625,20.3671875 L11.5390625,20.3671875 L17.1171875,14.7890625 C17.3723958,14.5338542 17.5,14.2239583 17.5,13.859375 C17.5,13.4947917 17.3723958,13.1848958 17.1171875,12.9296875 L17.1171875,12.9296875 L11.3203125,7.1328125 C11.0651042,6.87760417 10.7552083,6.75 10.390625,6.75 L10.390625,6.75 L9.05078125,6.75 L14.4375,12.109375 C14.9114583,12.6015625 15.1484375,13.1848958 15.1484375,13.859375 C15.1484375,14.5338542 14.9114583,15.1171875 14.4375,15.609375 L14.4375,15.609375 L9.6796875,20.3671875 C9.93489583,20.6223958 10.2447917,20.75 10.609375,20.75 Z M3.0625,11.125 C2.69791667,11.125 2.38802083,10.9973958 2.1328125,10.7421875 C1.87760417,10.4869792 1.75,10.1770833 1.75,9.8125 C1.75,9.44791667 1.87760417,9.13802083 2.1328125,8.8828125 C2.38802083,8.62760417 2.69791667,8.5 3.0625,8.5 C3.42708333,8.5 3.73697917,8.62760417 3.9921875,8.8828125 C4.24739583,9.13802083 4.375,9.44791667 4.375,9.8125 C4.375,10.1770833 4.24739583,10.4869792 3.9921875,10.7421875 C3.73697917,10.9973958 3.42708333,11.125 3.0625,11.125 Z" transform="translate(0 -6)"/>
</svg>
