<svg xmlns="http://www.w3.org/2000/svg" width="42" height="42" viewBox="0 0 42 42">
  <path fill="#FFF" d="M20.8935547,42.0258789 C32.0424805,42.0258789 41.2597656,32.8085938 41.2597656,21.659668 C41.2597656,10.5317383 32.0214844,1.31445312 20.8935547,1.31445312 C9.74462891,1.31445312 0.548339844,10.5317383 0.548339844,21.659668 C0.548339844,32.8085938 9.765625,42.0258789 20.8935547,42.0258789 Z M20.8935547,24.9980469 C17.0512695,24.9770508 14.0487202,21.7646484 14.0487202,17.4814453 C14.027832,13.4501953 17.0722656,10.1118164 20.8935547,10.1118164 C24.7358398,10.1118164 27.7592773,13.4501953 27.7592773,17.4814453 C27.7592773,21.7646484 24.7568359,25.0400391 20.8935547,24.9980469 Z M20.8935547,38.7714844 C16.3793945,38.7714844 11.8022461,36.902832 8.77880859,33.6484375 L8.82080078,33.3964844 C10.5844727,30.9819336 14.8466797,28.3994141 20.8935547,28.3994141 C26.9614258,28.3994141 31.2026367,30.9819336 32.9873047,33.3964844 L33.0292969,33.6484375 C30.0058594,36.902832 25.4287109,38.7714844 20.8935547,38.7714844 Z" transform="translate(0 -1)"/>
</svg>
